<?xml version="1.0" encoding="UTF-8"?>
<svg width="269px" height="299px" viewBox="0 0 269 299" version="1.1" xmlns="http://www.w3.org/2000/svg" xmlns:xlink="http://www.w3.org/1999/xlink">
    <!-- Generator: Sketch 44.1 (41455) - http://www.bohemiancoding.com/sketch -->
    <title>Shape</title>
    <desc>Created with Sketch.</desc>
    <defs></defs>
    <g id="Page-1" stroke="none" stroke-width="1" fill="none" fill-rule="evenodd">
        <g id="noun_1076103_cc" fill-rule="nonzero" fill="#FFFFFF">
            <path d="M134.5,0.948387097 C126.2125,0.948387097 119.875,7.28064516 119.875,15.5612903 L119.875,252.777419 L24.325,170.945161 C17.9875,165.587097 8.725,166.56129 3.85,172.406452 C-1.5125,178.73871 -0.5375,187.993548 5.3125,192.864516 L124.75,295.154839 C127.675,297.590323 131.0875,298.564516 134.5,298.564516 C137.9125,298.564516 141.325,297.590323 144.25,295.154839 L263.6875,192.864516 C270.025,187.506452 270.5125,178.251613 265.15,172.406452 C259.7875,166.074194 250.525,165.587097 244.675,170.945161 L149.125,252.777419 L149.125,15.5612903 C149.125,7.28064516 142.7875,0.948387097 134.5,0.948387097 Z" id="Shape"></path>
        </g>
    </g>
</svg>