<?xml version="1.0" encoding="UTF-8"?>
<svg width="165px" height="66px" viewBox="0 0 165 66" version="1.1" xmlns="http://www.w3.org/2000/svg" xmlns:xlink="http://www.w3.org/1999/xlink">
    <!-- Generator: Sketch 44.1 (41455) - http://www.bohemiancoding.com/sketch -->
    <title>noun_1070853_cc</title>
    <desc>Created with Sketch.</desc>
    <defs></defs>
    <g id="Page-1" stroke="none" stroke-width="1" fill="none" fill-rule="evenodd">
        <g id="noun_1070853_cc">
            <g id="Group">
                <path d="M85.0886667,33.0036667 C84.2123333,32.329 83.3488333,31.6323333 82.5036667,30.9136667 C81.818,31.4911667 81.1305,32.0485 80.4485,32.5838333 C80.2706667,32.7231667 80.0891667,32.8588333 79.9095,32.9963333 C80.7858333,33.671 81.6493333,34.3676667 82.4945,35.0863333 C83.1801667,34.5088333 83.8676667,33.9515 84.5496667,33.4161667 C84.7293333,33.2768333 84.909,33.1411667 85.0886667,33.0036667 Z" id="Shape"></path>
                <path d="M79.7573333,15.0498333 C80.454,16.3771667 81.4275,17.5651667 82.5,18.6688333 C83.5725,17.5633333 84.546,16.3735 85.2426667,15.0498333 C86.559,12.5436667 86.1703333,8.01716667 82.5,7.986 C78.8205,8.01716667 78.4446667,12.551 79.7573333,15.0498333 Z" id="Shape"></path>
                <path d="M82.4743333,28.4863333 C83.809,27.2983333 85.1033333,26.0223333 86.2656667,24.6491667 C85.1436667,23.6921667 84.0473333,22.7058333 82.9821667,21.6883333 C82.8538333,21.5673333 82.7255,21.4445 82.5971667,21.3216667 C81.4,22.5206667 80.1148333,23.6555 78.793,24.739 C79.9131667,26.0718333 81.1635,27.3166667 82.4743333,28.4863333 Z" id="Shape"></path>
                <path d="M79.5905,30.9008333 C80.0891667,30.5048333 80.5915,30.096 81.0938333,29.6743333 C79.8068333,28.5046667 78.5363333,27.2341667 77.3758333,25.8701667 C76.1236667,26.8491667 74.8586667,27.7841667 73.6248333,28.6806667 C75.2473333,29.6706667 76.8313333,30.7266667 78.3695,31.8468333 C78.7801667,31.5351667 79.1871667,31.2216667 79.5905,30.9008333 Z" id="Shape"></path>
                <path d="M81.1965,19.943 C79.86,18.5753333 78.6225,17.0921667 77.8415,15.3578333 C76.1731667,11.6508333 77.7571667,6.19116667 82.456,6.1215 C82.4651667,6.1215 82.4725,6.11966667 82.4816667,6.11966667 C82.4871667,6.11966667 82.4926667,6.11966667 82.4981667,6.11966667 C82.5036667,6.11966667 82.511,6.11966667 82.5165,6.11966667 C82.5275,6.11966667 82.5385,6.12333333 82.5495,6.12333333 C84.8723333,6.16366667 86.6855,7.72933333 87.4903333,9.86883333 C88.451,12.4281667 87.5911667,15.0828333 86.075,17.2388333 C85.404,18.1921667 84.656,19.1088333 83.8566667,19.9925 C84.4745,20.5681667 85.0978333,21.1255 85.6991667,21.6736667 C86.2638333,22.1888333 86.8376667,22.693 87.417,23.1916667 C88.9551667,21.0961667 90.1395,18.7935 90.6693333,16.2543333 C91.7968333,10.8515 88.8195,3.03233333 82.5,2.8105 C74.9613333,3.07266667 72.7851667,12.9891667 75.0896667,18.7348333 C75.724,20.3151667 76.582,21.7946667 77.5885,23.1861667 C78.166,22.6911667 78.738,22.187 79.3008333,21.6736667 C79.9186667,21.1108333 80.5621667,20.537 81.1965,19.943 Z" id="Shape"></path>
                <path d="M82.5256667,37.5136667 C81.191,38.7016667 79.8966667,39.9776667 78.7343333,41.3508333 C79.8563333,42.3078333 80.9526667,43.2941667 82.0178333,44.3116667 C82.1461667,44.4326667 82.2745,44.5555 82.4028333,44.6783333 C83.6,43.4793333 84.8851667,42.3445 86.207,41.261 C85.0868333,39.9281667 83.8365,38.6833333 82.5256667,37.5136667 Z" id="Shape"></path>
                <path d="M85.2426667,50.9501667 C84.546,49.6228333 83.5725,48.4348333 82.5,47.3293333 C81.4275,48.4348333 80.454,49.6246667 79.7573333,50.9501667 C78.441,53.4563333 78.8296667,57.9828333 82.5,58.014 C86.1795,57.9828333 86.5553333,53.449 85.2426667,50.9501667 Z" id="Shape"></path>
                <path d="M9.44533333,35.4731667 C9.5865,34.6188333 9.8065,33.7626667 10.1621667,33 C9.8065,32.2373333 9.5865,31.3793333 9.44533333,30.5268333 C7.634,31.5223333 5.742,32.3271667 3.795,33 C5.742,33.6728333 7.634,34.4776667 9.44533333,35.4731667 Z" id="Shape"></path>
                <path d="M71.9656667,36.1533333 C73.6193333,35.1706667 75.2326667,34.1183333 76.8001667,33 C75.2235,31.8761667 73.6083333,30.8311667 71.9546667,29.8576667 C70.345,30.9668333 68.695,32.0136667 67.012,33.0018333 C68.6986667,33.9955 70.3523333,35.0423333 71.9656667,36.1533333 Z" id="Shape"></path>
                <path d="M12.3713333,33 C12.9745,33.5243333 14.729,34.298 14.9215,33 C14.7271667,31.6781667 12.9836667,32.461 12.3713333,33 Z" id="Shape"></path>
                <path d="M83.8915,29.7055 C84.7953333,30.4535 85.7138333,31.1685 86.6286667,31.8541667 C88.1833333,30.7303333 89.7765,29.6798333 91.4045,28.6971667 C90.7463333,28.2205 90.0955,27.7346667 89.452,27.2396667 C88.858,26.7813333 88.2695,26.3138333 87.6883333,25.839 C86.5205,27.2158333 85.228,28.5046667 83.8915,29.7055 Z" id="Shape"></path>
                <path d="M20.295,32.9285 C20.328,33.5335 21.2373333,33.5408333 21.2373333,32.9285 C21.2373333,32.318 20.328,32.3198333 20.295,32.9285 Z" id="Shape"></path>
                <path d="M93.0343333,29.8466667 C91.3806667,30.8293333 89.7673333,31.8816667 88.1998333,33 C89.7765,34.1238333 91.3916667,35.1688333 93.0453333,36.1423333 C94.655,35.0331667 96.305,33.9863333 97.988,32.9981667 C96.3013333,32.0045 94.6476667,30.9576667 93.0343333,29.8466667 Z" id="Shape"></path>
                <path d="M127.029833,40.1463333 C130.045667,39.061 131.739667,36.0965 131.8405,32.9981667 C131.739667,29.898 130.049333,26.9371667 127.029833,25.8518333 C123.938833,24.7408333 120.558167,25.674 117.525833,26.5246667 C112.0625,28.0591667 106.7715,30.3031667 101.772,32.9981667 C106.7715,35.6931667 112.0625,37.9371667 117.525833,39.4716667 C120.556333,40.3241667 123.940667,41.2573333 127.029833,40.1463333 Z" id="Shape"></path>
                <path d="M154.837833,33 C155.1935,33.7626667 155.4135,34.6188333 155.554667,35.4731667 C157.366,34.4776667 159.258,33.6728333 161.205,33 C159.256167,32.3271667 157.364167,31.5223333 155.552833,30.5268333 C155.4135,31.3811667 155.1935,32.2373333 154.837833,33 Z" id="Shape"></path>
                <path d="M143.762667,32.9285 C143.762667,33.539 144.672,33.5353333 144.705,32.9285 C144.672,32.3216667 143.762667,32.3161667 143.762667,32.9285 Z" id="Shape"></path>
                <path d="M150.0785,33 C150.274667,34.32 152.016333,33.539 152.628667,33 C152.0255,32.4756667 150.272833,31.702 150.0785,33 Z" id="Shape"></path>
                <path d="M57.2201667,37.9481667 C54.4151667,39.1508333 51.5551667,40.2251667 48.6255,41.085 C45.7948333,41.9155 42.7881667,42.7533333 39.8108333,42.4361667 C34.9378333,41.9155 31.6011667,38.104 31.317,33.3171667 C31.3005,33.242 31.2895,33.1613333 31.2913333,33.0733333 C31.2913333,33.0458333 31.295,33.0183333 31.295,32.9908333 C31.295,32.9706667 31.2913333,32.9505 31.2913333,32.9303333 C31.2895,32.8533333 31.2968333,32.78 31.3096667,32.7121667 C31.6396667,26.8198333 36.4466667,23.056 42.2876667,23.5491667 C48.2661667,24.0551667 54.3125,26.6658333 59.7025,29.161 C61.5541667,30.019 63.3691667,30.9485 65.1493333,31.9366667 C66.8543333,30.9631667 68.5245,29.9273333 70.1543333,28.8328333 C66.5408333,26.8436667 62.766,25.1588333 58.8701667,23.6866667 C52.5653333,21.3033333 45.4978333,18.9695 38.6943333,20.3445 C32.5141667,21.593 27.1333333,26.4403333 26.9481667,32.9981667 C27.1626667,40.8136667 34.4428333,45.6958333 41.7193333,46.0185 C48.4091667,46.3155 54.9431667,43.8698333 61.072,41.4645 C64.2015,40.2361667 67.2448333,38.8098333 70.1726667,37.1818333 C68.5373333,36.0818333 66.8616667,35.0441667 65.1493333,34.0651667 C62.5753333,35.4896667 59.928,36.7858333 57.2201667,37.9481667 Z" id="Shape"></path>
                <path d="M123.280667,19.9833333 C116.590833,19.6863333 110.056833,22.132 103.928,24.5373333 C100.7985,25.7656667 97.7551667,27.192 94.8273333,28.82 C96.4626667,29.92 98.1383333,30.9576667 99.8506667,31.9366667 C102.4265,30.5121667 105.072,29.216 107.781667,28.0536667 C110.584833,26.851 113.446667,25.7766667 116.376333,24.9168333 C119.207,24.0863333 122.213667,23.2485 125.191,23.5656667 C130.064,24.0863333 133.400667,27.8978333 133.684833,32.6846667 C133.701333,32.7598333 133.712333,32.8405 133.7105,32.9285 C133.7105,32.956 133.706833,32.9835 133.706833,33.011 C133.706833,33.0311667 133.7105,33.0513333 133.7105,33.0715 C133.712333,33.1485 133.705,33.2218333 133.692167,33.2896667 C133.362167,39.182 128.555167,42.9458333 122.714167,42.4526667 C116.735667,41.9466667 110.689333,39.336 105.299333,36.8408333 C103.447667,35.9828333 101.632667,35.0533333 99.8525,34.0651667 C98.1475,35.0386667 96.4773333,36.0745 94.8493333,37.169 C98.4628333,39.1581667 102.237667,40.843 106.1335,42.3151667 C112.438333,44.6985 119.507667,47.0323333 126.309333,45.6573333 C132.4895,44.4088333 137.870333,39.5615 138.0555,33.0036667 C137.837333,25.1863333 130.557167,20.306 123.280667,19.9833333 Z" id="Shape"></path>
                <path d="M81.1085,36.2945 C80.2046667,35.5465 79.2861667,34.8315 78.3713333,34.1458333 C76.8166667,35.2696667 75.2235,36.3201667 73.5955,37.3028333 C74.2536667,37.7795 74.9045,38.2653333 75.548,38.7603333 C76.142,39.2186667 76.7305,39.6861667 77.3116667,40.161 C78.4795,38.7841667 79.772,37.4953333 81.1085,36.2945 Z" id="Shape"></path>
                <path d="M85.4095,35.0991667 C84.9108333,35.4951667 84.4085,35.904 83.9061667,36.3256667 C85.1931667,37.4953333 86.4636667,38.7658333 87.6241667,40.1298333 C88.8763333,39.1508333 90.1413333,38.2158333 91.3751667,37.3193333 C89.7526667,36.3293333 88.1686667,35.2733333 86.6286667,34.1531667 C86.2198333,34.4648333 85.8128333,34.7783333 85.4095,35.0991667 Z" id="Shape"></path>
                <path d="M83.8035,46.057 C85.14,47.4246667 86.3775,48.9078333 87.1585,50.6421667 C88.8268333,54.3491667 87.2446667,59.8088333 82.544,59.8785 C82.5348333,59.8785 82.5275,59.8803333 82.5183333,59.8803333 C82.5128333,59.8803333 82.5073333,59.8803333 82.5018333,59.8803333 C82.4963333,59.8803333 82.489,59.8803333 82.4835,59.8803333 C82.4725,59.8803333 82.4615,59.8766667 82.4505,59.8766667 C80.1295,59.8363333 78.3145,58.2706667 77.5115,56.1311667 C76.5508333,53.5718333 77.4106667,50.9171667 78.9268333,48.7611667 C79.5978333,47.8078333 80.3458333,46.8911667 81.1451667,46.0075 C80.5273333,45.4318333 79.904,44.8745 79.3026667,44.3263333 C78.738,43.8111667 78.1641667,43.307 77.5848333,42.8083333 C76.0466667,44.9038333 74.8623333,47.2065 74.3325,49.7456667 C73.205,55.1485 76.1823333,62.9676667 82.5018333,63.1895 C90.0405,62.9273333 92.2166667,53.0108333 89.9121667,47.2651667 C89.2778333,45.6848333 88.4198333,44.2053333 87.4133333,42.8138333 C86.8358333,43.3088333 86.2638333,43.813 85.701,44.3263333 C85.0813333,44.8891667 84.4378333,45.463 83.8035,46.057 Z" id="Shape"></path>
                <path d="M37.9701667,25.8536667 C34.9543333,26.939 33.2603333,29.9035 33.1595,33.0018333 C33.2603333,36.102 34.9506667,39.0628333 37.9701667,40.1481667 C41.0611667,41.2591667 44.4418333,40.326 47.4741667,39.4753333 C52.9375,37.9408333 58.2285,35.6968333 63.228,33.0018333 C58.2285,30.3068333 52.9375,28.0628333 47.4741667,26.5283333 C44.4436667,25.674 41.0593333,24.7426667 37.9701667,25.8536667 Z" id="Shape"></path>
                <path d="M164.341833,32.0283333 C161.15,31.1263333 158.114,29.9456667 155.277833,28.2131667 C154.628833,27.8171667 153.934,28.3451667 153.875333,29.018 C153.811167,29.7256667 153.747,30.5415 153.547167,31.3005 C153.123667,30.9631667 152.623167,30.701 152.016333,30.5506667 C150.296667,30.1271667 148.815333,30.8183333 148.3405,32.3583333 C148.236,32.5013333 148.177333,32.6901667 148.201167,32.9285 C148.203,32.9541667 148.2085,32.9761667 148.212167,33 C148.2085,33.0238333 148.204833,33.0476667 148.201167,33.0715 C148.179167,33.3098333 148.236,33.4968333 148.3405,33.6398333 C148.815333,35.1816667 150.294833,35.8728333 152.016333,35.4493333 C152.623167,35.3008333 153.1255,35.0368333 153.549,34.6995 C153.750667,35.453 153.813,36.267 153.877167,36.982 C153.937667,37.6566667 154.6325,38.1828333 155.279667,37.7868333 C158.115833,36.0543333 161.151833,34.8736667 164.343667,33.9716667 C164.846,33.8286667 165.036667,33.407 164.9945,33.0018333 C165.036667,32.5966667 164.847833,32.1713333 164.341833,32.0283333 Z M161.205,33 C159.256167,33.6728333 157.364167,34.4776667 155.554667,35.4731667 C155.4135,34.6188333 155.195333,33.7608333 154.837833,33 C155.1935,32.2373333 155.4135,31.3811667 155.554667,30.5268333 C157.366,31.5223333 159.258,32.3271667 161.205,33 Z M150.0785,33 C150.272833,31.702 152.0255,32.4756667 152.628667,33 C152.016333,33.539 150.272833,34.3218333 150.0785,33 Z" id="Shape" fill="#000000" fill-rule="nonzero"></path>
                <path d="M146.531,32.6095 C146.334833,31.4893333 145.440167,30.591 144.233833,30.591 C142.957833,30.591 141.909167,31.6598333 141.896333,32.9266667 C141.885333,34.1715 142.926667,35.2128333 144.156833,35.2586667 C145.3925,35.3045 146.3275,34.3933333 146.531,33.2475 C146.560333,33.1521667 146.576833,33.0458333 146.5695,32.9266667 C146.576833,32.8093333 146.5585,32.7048333 146.531,32.6095 Z M143.762667,32.9285 C143.762667,32.3161667 144.672,32.3235 144.705,32.9285 C144.672,33.5353333 143.762667,33.539 143.762667,32.9285 Z" id="Shape" fill="#000000" fill-rule="nonzero"></path>
                <path d="M139.905333,32.7341667 C139.601,26.147 134.720667,20.9128333 128.542333,18.9933333 C120.968833,16.6393333 112.7555,19.195 105.634833,21.8881667 C101.308167,23.5253333 97.1355,25.4136667 93.1608333,27.6668333 C91.685,26.62 90.2458333,25.5255 88.8451667,24.3815 C90.7738333,21.7873333 92.2056667,18.8961667 92.6493333,15.6805 C93.5238333,9.35 89.7398333,1.3805 82.7401667,0.960666667 C82.6705,0.947833333 82.5971667,0.9405 82.5165,0.942333333 C82.511,0.942333333 82.5055,0.944166667 82.4981667,0.944166667 C82.4926667,0.944166667 82.4871667,0.942333333 82.4816667,0.942333333 C82.4028333,0.9405 82.3313333,0.946 82.2635,0.958833333 C76.1328333,1.3255 72.4588333,7.5515 72.2205,13.2403333 C72.0481667,17.3635 73.7366667,21.0998333 76.1731667,24.3631667 C74.7761667,25.5053333 73.3406667,26.598 71.8703333,27.6411667 C68.7371667,25.8463333 65.4701667,24.2806667 62.1005,22.9478333 C54.9816667,20.1318333 47.1643333,17.1893333 39.3745,18.3406667 C31.9935,19.4315 25.4576667,24.9938333 25.0928333,32.714 C25.08,32.78 25.0745,32.8515 25.0763333,32.9285 C25.0763333,32.9541667 25.0781667,32.978 25.08,33.0036667 C25.08,33.0275 25.0763333,33.0495 25.0763333,33.0733333 C25.0745,33.143 25.0818333,33.2071667 25.091,33.2676667 C25.3953333,39.8548333 30.2756667,45.089 36.454,47.0085 C44.0275,49.3625 52.2408333,46.8068333 59.3615,44.1136667 C63.6881667,42.4765 67.8608333,40.5881667 71.8355,38.335 C73.3113333,39.3818333 74.7505,40.4763333 76.1511667,41.6203333 C74.2225,44.2145 72.7906667,47.1056667 72.347,50.3213333 C71.4725,56.6518333 75.2565,64.6213333 82.2561667,65.0411667 C82.3258333,65.054 82.3991667,65.0613333 82.4798333,65.0595 C82.4853333,65.0595 82.4908333,65.0576667 82.4981667,65.0576667 C82.5036667,65.0576667 82.5091667,65.0595 82.5146667,65.0595 C82.5935,65.0613333 82.665,65.0558333 82.7328333,65.043 C88.8635,64.6763333 92.5375,58.4503333 92.7758333,52.7615 C92.9481667,48.6383333 91.2596667,44.902 88.8231667,41.6386667 C90.2201667,40.4965 91.6556667,39.4038333 93.126,38.3606667 C96.2591667,40.1555 99.5261667,41.7211667 102.895833,43.054 C110.014667,45.87 117.832,48.8125 125.621833,47.6611667 C133.002833,46.5703333 139.538667,41.008 139.9035,33.2878333 C139.916333,33.2218333 139.921833,33.1503333 139.92,33.0733333 C139.92,33.0476667 139.918167,33.0238333 139.916333,32.9981667 C139.916333,32.9743333 139.92,32.9523333 139.92,32.9285 C139.921833,32.8588333 139.916333,32.7946667 139.905333,32.7341667 Z M89.452,27.2378333 C90.0955,27.7346667 90.7463333,28.2186667 91.4045,28.6953333 C89.7765,29.6798333 88.1833333,30.7285 86.6286667,31.8523333 C85.7138333,31.1685 84.7935,30.4535 83.8915,29.7036667 C85.228,28.501 86.5205,27.214 87.6883333,25.8353333 C88.2713333,26.312 88.858,26.7795 89.452,27.2378333 Z M88.1998333,33 C89.7691667,31.8798333 91.3806667,30.8293333 93.0343333,29.8466667 C94.6476667,30.9576667 96.3013333,32.0063333 97.988,32.9981667 C96.3031667,33.9863333 94.655,35.0331667 93.0453333,36.1423333 C91.3916667,35.1706667 89.7765,34.1238333 88.1998333,33 Z M82.5,58.014 C78.8315,57.9828333 78.4428333,53.4563333 79.7573333,50.9501667 C80.4521667,49.6246667 81.4275,48.4366667 82.5,47.3293333 C83.5706667,48.4348333 84.546,49.6228333 85.2426667,50.9501667 C86.5553333,53.449 86.1795,57.9828333 82.5,58.014 Z M82.4028333,44.6783333 C82.2745,44.5555 82.1461667,44.4326667 82.0178333,44.3116667 C80.9508333,43.2941667 79.8545,42.3078333 78.7343333,41.3508333 C79.8966667,39.9776667 81.191,38.7016667 82.5256667,37.5136667 C83.8365,38.6833333 85.0868333,39.9263333 86.207,41.261 C84.887,42.3445 83.6,43.4811667 82.4028333,44.6783333 Z M82.4945,35.0863333 C81.6493333,34.3676667 80.7876667,33.6728333 79.9095,32.9963333 C80.0891667,32.8588333 80.2706667,32.7231667 80.4485,32.5838333 C81.1305,32.0485 81.818,31.4911667 82.5036667,30.9136667 C83.3488333,31.6323333 84.2105,32.3271667 85.0886667,33.0036667 C84.909,33.1411667 84.7275,33.2768333 84.5496667,33.4161667 C83.8695,33.9515 83.1801667,34.5088333 82.4945,35.0863333 Z M82.5,7.986 C86.1685,8.01716667 86.5571667,12.5436667 85.2426667,15.0498333 C84.5478333,16.3753333 83.5725,17.5633333 82.5,18.6688333 C81.4293333,17.5633333 80.454,16.3753333 79.7573333,15.0498333 C78.4446667,12.551 78.8205,8.01716667 82.5,7.986 Z M82.5971667,21.3216667 C82.7255,21.4445 82.8538333,21.5673333 82.9821667,21.6883333 C84.0491667,22.7058333 85.1455,23.6921667 86.2656667,24.6491667 C85.1033333,26.0223333 83.809,27.2983333 82.4743333,28.4863333 C81.1635,27.3166667 79.9131667,26.0736667 78.793,24.739 C80.113,23.6555 81.4,22.5188333 82.5971667,21.3216667 Z M75.0896667,18.733 C72.787,12.9873333 74.9631667,3.07083333 82.5,2.80866667 C88.8195,3.0305 91.7968333,10.8496667 90.6693333,16.2525 C90.1395,18.7898333 88.9551667,21.0943333 87.417,23.1898333 C86.8376667,22.693 86.2638333,22.187 85.6991667,21.6718333 C85.0978333,21.1236667 84.4726667,20.5663333 83.8566667,19.9906667 C84.656,19.1051667 85.404,18.1903333 86.075,17.237 C87.5911667,15.081 88.451,12.4263333 87.4903333,9.867 C86.6873333,7.7275 84.8723333,6.16183333 82.5495,6.1215 C82.5385,6.1215 82.5275,6.11783333 82.5165,6.11783333 C82.511,6.11783333 82.5036667,6.11783333 82.4981667,6.11783333 C82.4926667,6.11783333 82.4871667,6.11783333 82.4816667,6.11783333 C82.4725,6.11783333 82.4651667,6.11966667 82.456,6.11966667 C77.7553333,6.18933333 76.1731667,11.649 77.8415,15.356 C78.6206667,17.0903333 79.86,18.5735 81.1965,19.9411667 C80.5621667,20.5351667 79.9186667,21.109 79.3008333,21.6718333 C78.738,22.1851667 78.166,22.6875 77.5885,23.1843333 C76.582,21.7928333 75.724,20.3151667 75.0896667,18.733 Z M77.3776667,25.8701667 C78.5381667,27.2341667 79.8086667,28.5046667 81.0956667,29.6743333 C80.5933333,30.0941667 80.091,30.503 79.5923333,30.9008333 C79.189,31.2216667 78.782,31.5351667 78.3731667,31.845 C76.8331667,30.7248333 75.251,29.6706667 73.6285,28.6788333 C74.8605,27.7841667 76.1255,26.8491667 77.3776667,25.8701667 Z M76.8001667,33 C75.2308333,34.1201667 73.6193333,35.1706667 71.9656667,36.1533333 C70.3523333,35.0423333 68.6986667,33.9936667 67.012,33.0018333 C68.6968333,32.0136667 70.345,30.9668333 71.9546667,29.8576667 C73.6083333,30.8293333 75.2235,31.8761667 76.8001667,33 Z M61.072,41.4626667 C54.9431667,43.8661667 48.4091667,46.3136667 41.7193333,46.0166667 C34.4428333,45.694 27.1626667,40.8118333 26.9481667,32.9963333 C27.1333333,26.4403333 32.5141667,21.593 38.6943333,20.3426667 C45.496,18.9676667 52.5653333,21.2996667 58.8701667,23.6848333 C62.766,25.157 66.539,26.8418333 70.1543333,28.831 C68.5245,29.9255 66.8561667,30.9613333 65.1493333,31.9348333 C63.3673333,30.9466667 61.5541667,30.0171667 59.7025,29.1591667 C54.3125,26.664 48.2643333,24.0533333 42.2876667,23.5473333 C36.4466667,23.0523333 31.6396667,26.8161667 31.3096667,32.7103333 C31.2968333,32.7781667 31.2895,32.8496667 31.2913333,32.9285 C31.2913333,32.9486667 31.295,32.9688333 31.295,32.989 C31.295,33.0165 31.2913333,33.044 31.2913333,33.0715 C31.2895,33.1595 31.3005,33.2401667 31.317,33.3153333 C31.6011667,38.1021667 34.9396667,41.9155 39.8108333,42.4343333 C42.7881667,42.7515 45.7948333,41.9136667 48.6255,41.0831667 C51.5551667,40.2233333 54.4151667,39.149 57.2201667,37.9463333 C59.928,36.784 62.5753333,35.4878333 65.1511667,34.0633333 C66.8635,35.0405 68.5391667,36.08 70.1745,37.18 C67.243,38.808 64.2015,40.2361667 61.072,41.4626667 Z M63.228,33 C58.2285,35.695 52.9375,37.939 47.4741667,39.4735 C44.4418333,40.326 41.0611667,41.2591667 37.9701667,40.1463333 C34.9506667,39.061 33.2603333,36.0983333 33.1595,33 C33.2603333,29.9035 34.9525,26.9371667 37.9701667,25.8518333 C41.0593333,24.7408333 44.4436667,25.674 47.4741667,26.5246667 C52.9375,28.061 58.2285,30.305 63.228,33 Z M75.548,38.7621667 C74.9045,38.2653333 74.2536667,37.7813333 73.5955,37.3046667 C75.2235,36.3201667 76.8166667,35.2715 78.3713333,34.1476667 C79.2861667,34.8315 80.2065,35.5465 81.1085,36.2963333 C79.772,37.499 78.4795,38.786 77.3116667,40.1646667 C76.7286667,39.688 76.142,39.2205 75.548,38.7621667 Z M89.9103333,47.267 C92.213,53.0126667 90.0368333,62.9291667 82.5,63.1913333 C76.1805,62.9695 73.2031667,55.1503333 74.3306667,49.7475 C74.8605,47.2101667 76.0448333,44.9056667 77.583,42.8101667 C78.1623333,43.307 78.7361667,43.813 79.3008333,44.3281667 C79.9021667,44.8763333 80.5273333,45.4336667 81.1433333,46.0093333 C80.344,46.8948333 79.596,47.8096667 78.925,48.763 C77.4088333,50.919 76.549,53.5736667 77.5096667,56.133 C78.3126667,58.2725 80.1276667,59.8381667 82.4486667,59.8785 C82.4596667,59.8785 82.4706667,59.8821667 82.4816667,59.8821667 C82.4871667,59.8821667 82.4945,59.8821667 82.5,59.8821667 C82.5055,59.8821667 82.511,59.8821667 82.5165,59.8821667 C82.5256667,59.8821667 82.533,59.8803333 82.5421667,59.8803333 C87.2428333,59.8106667 88.825,54.351 87.1566667,50.644 C86.3775,48.9096667 85.1381667,47.4265 83.8016667,46.0588333 C84.436,45.4648333 85.0795,44.891 85.6973333,44.3281667 C86.2601667,43.8148333 86.8321667,43.3125 87.4096667,42.8156667 C88.418,44.2071667 89.276,45.6848333 89.9103333,47.267 Z M87.6223333,40.1298333 C86.4618333,38.7658333 85.1913333,37.4953333 83.9043333,36.3256667 C84.4066667,35.9058333 84.909,35.497 85.4076667,35.0991667 C85.811,34.7783333 86.218,34.4648333 86.6268333,34.155 C88.1668333,35.2751667 89.749,36.3293333 91.3733333,37.3211667 C90.1395,38.2158333 88.8745,39.1508333 87.6223333,40.1298333 Z M126.305667,45.6555 C119.504,47.0305 112.434667,44.6985 106.129833,42.3133333 C102.234,40.8411667 98.461,39.1563333 94.8456667,37.1671667 C96.4755,36.0726667 98.1438333,35.0368333 99.8488333,34.0633333 C101.630833,35.0515 103.444,35.981 105.295667,36.839 C110.685667,39.3341667 116.733833,41.9448333 122.7105,42.4508333 C128.5515,42.9458333 133.3585,39.182 133.6885,33.2878333 C133.701333,33.22 133.708667,33.1485 133.706833,33.0696667 C133.706833,33.0495 133.703167,33.0293333 133.703167,33.0091667 C133.703167,32.9816667 133.706833,32.9541667 133.706833,32.9266667 C133.708667,32.8386667 133.697667,32.758 133.681167,32.6828333 C133.397,27.896 130.0585,24.0845 125.187333,23.5638333 C122.21,23.2466667 119.203333,24.0845 116.372667,24.915 C113.443,25.7748333 110.583,26.8491667 107.778,28.0518333 C105.070167,29.2141667 102.422833,30.5103333 99.847,31.9348333 C98.1346667,30.9576667 96.459,29.9181667 94.8236667,28.8181667 C97.7533333,27.1901667 100.794833,25.7638333 103.924333,24.5355 C110.053167,22.132 116.587167,19.6845 123.277,19.9815 C130.5535,20.3041667 137.833667,25.1863333 138.048167,33.0018333 C137.8685,39.5596667 132.485833,44.407 126.305667,45.6555 Z M101.772,33 C106.7715,30.305 112.0625,28.061 117.525833,26.5265 C120.558167,25.674 123.938833,24.7408333 127.029833,25.8536667 C130.049333,26.939 131.739667,29.9016667 131.8405,33 C131.739667,36.0983333 130.0475,39.0628333 127.029833,40.1481667 C123.940667,41.2591667 120.556333,40.326 117.525833,39.4753333 C112.0625,37.939 106.7715,35.695 101.772,33 Z" id="Shape" fill="#000000" fill-rule="nonzero"></path>
                <path d="M16.6613333,32.3601667 C16.1865,30.8183333 14.707,30.1271667 12.9855,30.5506667 C12.3786667,30.6991667 11.8763333,30.9631667 11.4528333,31.3005 C11.2511667,30.547 11.1888333,29.733 11.1246667,29.018 C11.0641667,28.3433333 10.3693333,27.8171667 9.72216667,28.2131667 C6.886,29.9456667 3.85,31.1263333 0.658166667,32.0283333 C0.155833333,32.1713333 -0.0348333333,32.593 0.00733333333,32.9981667 C-0.0366666667,33.4033333 0.154,33.8286667 0.658166667,33.9716667 C3.85,34.8736667 6.886,36.0543333 9.72216667,37.7868333 C10.3711667,38.1828333 11.066,37.6548333 11.1246667,36.982 C11.1888333,36.2743333 11.2511667,35.4585 11.4528333,34.6995 C11.8763333,35.0368333 12.3768333,35.299 12.9836667,35.4493333 C14.7033333,35.8728333 16.1846667,35.1816667 16.6595,33.6416667 C16.764,33.4986667 16.8226667,33.3098333 16.7988333,33.0715 C16.797,33.0458333 16.7915,33.0238333 16.7878333,33 C16.7915,32.9761667 16.7951667,32.9523333 16.7988333,32.9285 C16.8245,32.6901667 16.7658333,32.5031667 16.6613333,32.3601667 Z M10.1621667,33 C9.8065,33.7626667 9.5865,34.6188333 9.44533333,35.4731667 C7.634,34.4776667 5.742,33.6728333 3.795,33 C5.74383333,32.3271667 7.63583333,31.5223333 9.44533333,30.5268333 C9.5865,31.3811667 9.80466667,32.2391667 10.1621667,33 Z M12.3713333,33 C12.9855,32.461 14.7271667,31.6781667 14.9215,33 C14.7271667,34.298 12.9745,33.5243333 12.3713333,33 Z" id="Shape" fill="#000000" fill-rule="nonzero"></path>
                <path d="M20.8431667,30.5965 C19.6075,30.5506667 18.6725,31.4618333 18.469,32.6076667 C18.4396667,32.703 18.4231667,32.8093333 18.4305,32.9285 C18.4231667,33.0476667 18.4415,33.1521667 18.469,33.2475 C18.6651667,34.3676667 19.5598333,35.266 20.7661667,35.266 C22.0421667,35.266 23.0908333,34.1971667 23.1018333,32.9303333 C23.1146667,31.6836667 22.0733333,30.6405 20.8431667,30.5965 Z M20.295,32.9285 C20.328,32.3216667 21.2373333,32.318 21.2373333,32.9285 C21.2373333,33.5408333 20.328,33.5335 20.295,32.9285 Z" id="Shape" fill="#000000" fill-rule="nonzero"></path>
            </g>
        </g>
    </g>
</svg>