<?xml version="1.0" encoding="UTF-8"?>
<svg width="373px" height="658px" viewBox="0 0 373 658" version="1.1" xmlns="http://www.w3.org/2000/svg" xmlns:xlink="http://www.w3.org/1999/xlink">
    <!-- Generator: Sketch 45 (43475) - http://www.bohemiancoding.com/sketch -->
    <title>hitchcock_logo</title>
    <desc>Created with Sketch.</desc>
    <defs></defs>
    <g id="Page-1" stroke="none" stroke-width="1" fill="none" fill-rule="evenodd">
        <g id="hitchcock_logo">
            <path d="M63.3056937,201.890853 C63.3056937,201.890853 64.0133775,201.890853 63.3056937,201.890853 C67.5517965,201.183169 70.3825317,198.352434 70.3825317,194.106331 C64.7210613,133.245524 102.935987,74.5077687 140.443228,45.4927328 C143.273963,43.3696814 143.981647,38.4158948 141.858596,35.5851596 C139.735544,32.7544244 134.781758,32.0467406 131.951022,34.169792 C91.6130457,65.3078793 50.5673852,128.999421 56.9365394,194.814015 C56.9365394,199.060118 59.7672746,201.890853 63.3056937,201.890853 Z" id="Shape" fill="#FFFFFF" fill-rule="nonzero"></path>
            <path d="M27.2138198,291.059012 C27.9215036,291.059012 28.6291874,291.059012 29.3368712,290.351328 C44.9059148,284.689858 59.0595908,273.366917 67.5517965,259.213241 C77.4593697,243.644197 79.5824211,226.659786 73.9209507,211.090742 C72.5055831,207.552323 68.9671641,205.429272 64.7210613,206.84464 C61.1826422,208.260007 59.0595908,212.50611 60.4749584,216.044529 C68.9671641,241.521146 48.4443338,268.41313 24.3830846,276.905336 C20.8446656,278.320704 18.7216142,282.566806 20.1369818,286.105225 C21.5523494,289.643644 24.3830846,291.059012 27.2138198,291.059012 Z" id="Shape" fill="#FFFFFF" fill-rule="nonzero"></path>
            <path d="M113.551244,500.533417 C114.966611,501.241101 115.674295,501.241101 117.089663,501.241101 C119.920398,501.241101 122.043449,499.825733 123.458817,497.702682 C125.581868,494.164263 124.166501,489.91816 120.628082,487.795109 C85.9515753,468.687646 60.4749584,437.549559 49.8597014,400.042317 C39.2444444,363.950443 43.4905472,326.443202 61.1826422,294.597431 C63.3056937,291.059012 61.8903261,286.812909 58.351907,284.689858 C54.813488,282.566806 50.5673852,283.982174 48.4443338,287.520593 C28.6291874,322.904783 24.3830846,364.658127 36.4137092,403.580736 C47.73665,446.041764 75.3363183,480.010587 113.551244,500.533417 Z" id="Shape" fill="#FFFFFF" fill-rule="nonzero"></path>
            <path d="M339.302376,433.303456 C205.550138,436.841875 42.0751796,566.348011 1.02951912,647.731648 C-0.385848481,651.270067 1.02951912,655.51617 3.86025433,656.931537 C4.56793813,657.639221 5.98330573,657.639221 6.69098953,657.639221 C9.5217247,657.639221 11.6447761,656.223853 13.0601437,653.393118 C53.3981204,574.840216 215.457711,450.287867 340.01006,447.457132 C344.256163,447.457132 347.086898,443.918713 347.086898,440.380294 C347.086898,436.134191 343.548479,433.303456 339.302376,433.303456 Z" id="Shape" fill="#FFFFFF" fill-rule="nonzero"></path>
            <path d="M368.317412,26.3852702 C312.410392,-1.92208189 217.580762,-11.8296551 155.304588,21.4314836 C151.766169,23.554535 150.350801,27.8006378 152.473853,31.3390568 C154.596904,34.8774758 158.843007,36.2928434 162.381426,34.169792 C219.703814,3.73938853 310.995024,12.9392779 362.655942,39.1235786 C363.363625,39.8312624 364.778993,39.8312624 366.194361,39.8312624 C369.025096,39.8312624 371.148147,38.4158948 372.563515,36.2928434 C373.271199,32.0467406 371.855831,27.8006378 368.317412,26.3852702 Z" id="Shape" fill="#FFFFFF" fill-rule="nonzero"></path>
            <path d="M207.673189,46.9081004 C231.734438,41.9543138 277.026202,36.2928434 314.533443,53.9849384 C315.241127,54.6926222 316.656495,54.6926222 317.364178,54.6926222 C320.194914,54.6926222 322.317965,53.2772546 323.733333,50.4465194 C325.1487,46.9081004 323.733333,42.6619976 320.194914,41.24663 C280.564621,22.8468512 235.272857,26.3852702 204.13477,32.7544244 C200.596351,33.4621082 197.765616,37.0005272 198.4733,41.24663 C199.888667,45.4927328 203.427086,47.6157842 207.673189,46.9081004 Z" id="Shape" fill="#FFFFFF" fill-rule="nonzero"></path>
            <path d="M9.05092291,420.274376 C13.5718283,420.266795 17.7055819,419.196898 21.4521837,417.064685 C25.1987855,414.932473 27.7606241,412.19187 29.1376993,408.842877" id="Line" stroke="#FFFFFF" stroke-width="12" stroke-linecap="round"></path>
            <path d="M19,435.478656 C21.978289,436.124386 25.1082277,435.736871 28.3898163,434.316111 C31.6714048,432.895351 33.9591644,432.152646 35.2530949,432.087996" id="Line-Copy" stroke="#FFFFFF" stroke-width="12" stroke-linecap="round" transform="translate(27.126547, 433.934658) scale(-1, -1) translate(-27.126547, -433.934658) "></path>
        </g>
    </g>
</svg>