<?xml version="1.0" encoding="UTF-8"?>
<svg width="607px" height="883px" viewBox="0 0 607 883" version="1.1" xmlns="http://www.w3.org/2000/svg" xmlns:xlink="http://www.w3.org/1999/xlink">
    <!-- Generator: Sketch 45 (43475) - http://www.bohemiancoding.com/sketch -->
    <title>Artboard 3</title>
    <desc>Created with Sketch.</desc>
    <defs></defs>
    <g id="Page-1" stroke="none" stroke-width="1" fill="none" fill-rule="evenodd">
        <g id="Artboard-3" fill-rule="nonzero" fill="#FFFFFF">
            <g id="noun_709975_cc" transform="translate(116.000000, 113.000000)">
                <g id="Group" transform="translate(0.413182, 0.000000)">
                    <path d="M63.8925117,201.890853 C63.8925117,201.890853 64.6001955,201.890853 63.8925117,201.890853 C68.1386145,201.183169 70.9693497,198.352434 70.9693497,194.106331 C65.3078793,133.245524 103.522805,74.5077687 141.030046,45.4927328 C143.860781,43.3696814 144.568465,38.4158948 142.445414,35.5851596 C140.322362,32.7544244 135.368576,32.0467406 132.53784,34.169792 C92.1998637,65.3078793 51.1542032,128.999421 57.5233574,194.814015 C57.5233574,199.060118 60.3540926,201.890853 63.8925117,201.890853 Z" id="Shape"></path>
                    <path d="M27.8006378,291.059012 C28.5083216,291.059012 29.2160054,291.059012 29.9236892,290.351328 C45.4927328,284.689858 59.6464088,273.366917 68.1386145,259.213241 C78.0461877,243.644197 80.1692391,226.659786 74.5077687,211.090742 C73.0924011,207.552323 69.5539821,205.429272 65.3078793,206.84464 C61.7694602,208.260007 59.6464088,212.50611 61.0617764,216.044529 C69.5539821,241.521146 49.0311518,268.41313 24.9699026,276.905336 C21.4314836,278.320704 19.3084322,282.566806 20.7237998,286.105225 C22.1391674,289.643644 24.9699026,291.059012 27.8006378,291.059012 Z" id="Shape"></path>
                    <path d="M114.138062,500.533417 C115.553429,501.241101 116.261113,501.241101 117.676481,501.241101 C120.507216,501.241101 122.630267,499.825733 124.045635,497.702682 C126.168686,494.164263 124.753319,489.91816 121.2149,487.795109 C86.5383933,468.687646 61.0617764,437.549559 50.4465194,400.042317 C39.8312624,363.950443 44.0773652,326.443202 61.7694602,294.597431 C63.8925117,291.059012 62.4771441,286.812909 58.938725,284.689858 C55.400306,282.566806 51.1542032,283.982174 49.0311518,287.520593 C29.2160054,322.904783 24.9699026,364.658127 37.0005272,403.580736 C48.323468,446.041764 75.9231363,480.010587 114.138062,500.533417 Z" id="Shape"></path>
                    <path d="M339.889194,433.303456 C206.136956,436.841875 42.6619976,566.348011 1.61633712,647.731648 C0.200969519,651.270067 1.61633712,655.51617 4.44707233,656.931537 C5.15475613,657.639221 6.57012373,657.639221 7.27780753,657.639221 C10.1085427,657.639221 12.2315941,656.223853 13.6469617,653.393118 C53.9849384,574.840216 216.044529,450.287867 340.596878,447.457132 C344.842981,447.457132 347.673716,443.918713 347.673716,440.380294 C347.673716,436.134191 344.135297,433.303456 339.889194,433.303456 Z" id="Shape"></path>
                    <path d="M368.90423,26.3852702 C312.99721,-1.92208189 218.16758,-11.8296551 155.891406,21.4314836 C152.352987,23.554535 150.937619,27.8006378 153.060671,31.3390568 C155.183722,34.8774758 159.429825,36.2928434 162.968244,34.169792 C220.290632,3.73938853 311.581842,12.9392779 363.24276,39.1235786 C363.950443,39.8312624 365.365811,39.8312624 366.781179,39.8312624 C369.611914,39.8312624 371.734965,38.4158948 373.150333,36.2928434 C373.858017,32.0467406 372.442649,27.8006378 368.90423,26.3852702 Z" id="Shape"></path>
                    <path d="M7.27780753,426.226618 C7.27780753,426.226618 7.98549134,426.226618 7.27780753,426.226618 C22.8468512,425.518934 34.8774758,412.072942 33.4621082,395.796215 C33.4621082,391.550112 29.9236892,388.719377 26.3852702,388.719377 C22.1391674,388.719377 19.3084322,392.257796 19.3084322,395.796215 C20.016116,404.28842 14.3546455,411.365258 6.57012373,411.365258 C2.32402092,411.365258 -0.506714282,414.903677 0.200969519,418.442096 C0.908653321,423.395883 3.73938853,426.226618 7.27780753,426.226618 Z" id="Shape"></path>
                    <path d="M15.7700132,432.595772 C13.6469617,436.134191 15.0623294,440.380294 18.6007484,442.503345 C20.016116,443.211029 20.7237998,443.211029 22.1391674,443.211029 C24.9699026,443.211029 27.092954,441.795662 28.5083216,439.67261 C29.9236892,437.549559 32.7544244,436.134191 34.8774758,436.841875 C38.4158948,438.257243 42.6619976,436.841875 44.0773652,433.303456 C45.4927328,429.765037 44.0773652,425.518934 40.5389462,424.103567 C31.3390568,420.565148 20.7237998,424.103567 15.7700132,432.595772 Z" id="Shape"></path>
                    <path d="M208.260007,46.9081004 C232.321256,41.9543138 277.61302,36.2928434 315.120261,53.9849384 C315.827945,54.6926222 317.243313,54.6926222 317.950996,54.6926222 C320.781732,54.6926222 322.904783,53.2772546 324.320151,50.4465194 C325.735518,46.9081004 324.320151,42.6619976 320.781732,41.24663 C281.151439,22.8468512 235.859675,26.3852702 204.721588,32.7544244 C201.183169,33.4621082 198.352434,37.0005272 199.060118,41.24663 C200.475485,45.4927328 204.013904,47.6157842 208.260007,46.9081004 Z" id="Shape"></path>
                </g>
            </g>
        </g>
    </g>
</svg>